<svg xmlns="http://www.w3.org/2000/svg" viewBox="0 0 2082.36 841.42"><defs><style>.cls-1{fill:#2ca6db;}.cls-2{fill:#3b5a72;}</style></defs><g id="Laag_2" data-name="Laag 2"><g id="Laag_1-2" data-name="Laag 1"><path class="cls-1" d="M995.1,591.64l-5-31.3H928.09V831.1h67V688.31c0-50,32.4-68.66,67.55-68.66,22,0,34.6,6.05,48.33,17.58l30.2-58.22c-14.82-14.82-41.73-25.81-69.74-25.81C1044,553.2,1016,558.14,995.1,591.64Z"/><path class="cls-1" d="M489.75,562.34,364.69,729.08H350.43L228.11,561.79V841h-72.4V457h83.37l120.13,165.1L479.33,457h82.82V841h-72.4Z"/><path class="cls-2" d="M846.86,121.86c-85.55,0-154.48,65.86-154.48,156.94,0,96.63,68.93,156.33,154.48,156.33,48.62,0,101.55-19.69,131.09-58.47l-21.54-17.23c-22.77,30.16-69.55,46.16-109.55,46.16-62.78,0-117.56-41.24-123.71-112.63H997C1008.72,174.17,932.41,121.86,846.86,121.86ZM723.15,266.49c6.77-74.47,60.93-116.93,123.71-116.93,73.24,0,122.47,41.85,123.09,116.93Z"/><path class="cls-2" d="M1314.28,0H959.77V73.86h136.64v357h81.24v-357h136.63Z"/><path class="cls-2" d="M1404.13,118.17c-98.47,0-161.25,66.47-161.25,158.78,0,97.25,62.16,161.87,166.79,161.87,46.16,0,98.47-16,130.48-49.23l-48-47.4c-17.23,17.85-53.54,28.32-81.24,28.32-52.93,0-85.55-27.08-90.47-64.63h237C1569.08,181,1505.68,118.17,1404.13,118.17Zm-82.47,125.55c11.08-39.39,44.31-59.08,84.94-59.08,43.08,0,73.85,19.69,78.78,59.08Z"/><path class="cls-2" d="M1721.09,244.34c-38.78-2.47-56.62-13.54-56.62-33.24,0-19.08,19.69-30.15,55.39-30.15,28.93,0,53.54,6.77,75.08,27.07l41.85-49.23c-35.08-30.78-70.77-40-118.17-40-55.38,0-128,24.62-128,94.78,0,68.94,68.32,89.86,125.56,94.17,43.08,2.46,60.31,11.08,60.31,32,0,22.16-26.47,36.93-54.78,36.32-33.85-.62-83.08-18.47-104.62-42.47l-36.93,53.54c44.31,46.16,92.32,54.16,140.32,54.16,86.78,0,130.48-46.16,130.48-99.7C1851,261,1778.32,248,1721.09,244.34Z"/><path class="cls-2" d="M2061.43,357.58c-11.08,5.54-24.61,9.23-36.31,9.23-23.39,0-39.39-14.15-39.39-43.08V192.64h84.32V128h-83.7V41.85l-75.09,8V128h-56.62v64.63h56.62V323.73c0,75.7,43.08,113.25,108.93,110.78,22.78-.61,40.63-4.31,62.17-12.92Z"/><path class="cls-2" d="M521.9,122.48c-42.47.61-84.93,17.23-109.55,60.93V0H383.42V430.82h30.35V257.24C416.82,197.16,460.2,151.4,521.9,151.4c68.31,0,97.86,42.47,97.86,105.25V430.82H649.3V256.65C649.3,177.25,606.83,122.48,521.9,122.48Z"/><polygon class="cls-2" points="0 30.16 155.71 30.16 155.71 203.39 155.71 296.62 155.71 430.82 188.94 430.82 188.94 296.62 188.94 203.39 188.94 30.16 344.66 30.16 344.66 0.61 0 0.61 0 30.16"/><path class="cls-1" d="M735.51,656.21a40.33,40.33,0,1,0,40.33,40.33A40.34,40.34,0,0,0,735.51,656.21Z"/><path class="cls-1" d="M823.76,560.34l-2.2,37.35c-15.38-26.92-50-43.94-86.23-43.94-79.08-.55-141.14,48.33-141.14,141.69,0,95,59.31,144.45,139.5,143.9,30.2-.55,72.49-15.93,87.87-47.78l3.3,39.54H888V560.34Zm11.39,150.81-27.29,6.37a74.78,74.78,0,0,1-6.37,15.28l14.83,23.87-20.69,20.68-23.87-14.82a74.93,74.93,0,0,1-15.27,6.37l-6.38,27.28H720.9l-6.38-27.28a75.52,75.52,0,0,1-15.34-6.37l-23.8,14.82-20.61-20.68,14.75-23.8a74.81,74.81,0,0,1-6.37-15.35l-27.29-6.37V681.94l27.29-6.38a74.5,74.5,0,0,1,6.37-15.34l-14.75-23.8,20.61-20.61,23.72,14.75a75.67,75.67,0,0,1,15.42-6.38l6.38-27.28h29.21l6.38,27.28a75.32,75.32,0,0,1,15.34,6.38l23.8-14.75,20.69,20.61-14.76,23.87a74.46,74.46,0,0,1,6.23,15.2l27.36,6.45Z"/><polygon class="cls-1" points="1854.65 648.82 1856.63 539.83 1643.02 474.73 1673.67 596.97 1854.65 648.82"/><polygon class="cls-2" points="1854.31 667.48 1852.3 777.6 1636.51 831.98 1641.72 546.18 1658.13 608.27 1854.31 667.48"/><path class="cls-2" d="M1363.69,513.19q15.58.19,31.17-.3c10.15-.33,15.06-7.7,15.25-15.82.23-9.93-6.35-16.64-15.65-16.78-5.06-.07-10.12.08-15.17.13-5.2.05-10.4,0-15.59.17-9.14.28-15.35,6.84-15.4,16.1C1348.25,506.23,1354.45,513.09,1363.69,513.19Z"/><path class="cls-1" d="M1278.2,482.86v78.66h76.41v59h-77V740.18c0,26.41,14.61,39.33,36,39.33,10.68,0,23-3.37,33.15-8.43l19.1,58.44c-19.66,7.86-36,11.23-56.75,11.79-60.11,2.25-99.44-32-99.44-101.13V620.51H1158v-59h51.69V490.16Z"/><path class="cls-2" d="M1407.65,805.61q-15.39-.11-30.77.31a15.68,15.68,0,0,0-7.34,2l9.41,30.66c4.51,0,9-.08,13.52-.12h0c5.06,0,10.12,0,15.18-.16,9.5-.26,15.91-7,15.84-16.54C1423.43,812.43,1416.94,805.68,1407.65,805.61Z"/><path class="cls-2" d="M1629.3,475q-90.83,1.53-181.64,3.38c-1,0-1.93,0-2.88.06-13.8,1-18,13.87-13.22,24.47,2.84,6.33,8.56,8.43,15.25,8.31q40-.76,79.94-1.47c3.58-.06,7.18,0,10.33,2,8,4.95,8.67,11.31,7.2,19.73-1.08,6.17-8.12,10.78-15.68,11-8.51.27-17,.33-25.53.48l-137.22,2.5v32.46c35-.86,70.07-1.28,105.1-1.9,6.29-.12,11.19,2.57,14,8.17a16.9,16.9,0,0,1-.14,16.52c-3.09,5.56-8,7.59-14.31,7.67q-37.9.48-75.82,1.36c-6.44.14-11.53,2.8-14.5,8.93-3.29,6.8-2.39,12.94,2.24,18.75,4.47,5.6,10.72,5.27,16.89,5.19,2.31,0,3.61-.07,4.27-.43l7-.08a6.13,6.13,0,0,0,1.1.21l-.16-.22,14.81-.16a15.1,15.1,0,0,0,3.32.14c10.7-.23,21.41-.4,32.11-.6q41-.74,81.94-1.5a14.51,14.51,0,0,1,12.71,6.17c3.87,5.33,4.14,11.32,1.72,17.15-2.75,6.66-8.27,9.18-15.42,9.3q-59.09,1-118.17,2.12h0l-136.14,2.46v32.68h.71c8.75-.07,17.5-.23,26.24-.41h0l34.46-.51a10.64,10.64,0,0,0,1.45.08c1,0,1.92,0,2.88,0q47.19-.86,94.37-1.69c3.25,0,6.58-.54,9.7,1.09,7.24,3.78,10.19,10.8,8.24,19.89-1.38,6.43-7.66,11.11-15.23,11.26-13.74.28-27.47.48-41.21.78-9.73.21-16,6.85-15.83,16.55.13,9.32,7,16.79,16.42,15.91,3.41-.32,6.87-.17,10.3-.23q44.71-.81,89.42-1.6c7.13-.11,13.4,1.89,16.47,9,5.49,12.76-1.43,23.39-15.26,23.68-15.66.33-31.32.54-47,.89-6.94.15-12,3.35-14.57,9.93-2.7,6.8-1.38,13,3.47,18.25,4,4.31,9.24,4.71,14.75,4.6q77.73-1.46,155.47-2.87l6.48-355.79Z"/></g></g></svg>